<?xml version="1.0" encoding="UTF-8" standalone="no"?>
<!-- Created with Inkscape (http://www.inkscape.org/) -->

<svg
   width="16.933332mm"
   height="16.933334mm"
   viewBox="0 0 16.933332 16.933334"
   version="1.1"
   id="svg1"
   xmlns="http://www.w3.org/2000/svg"
   xmlns:svg="http://www.w3.org/2000/svg">
  <defs
     id="defs1" />
  <g
     id="layer1"
     transform="matrix(0.57142855,0,0,0.57142855,-261.89665,-212.78458)">
    <g
       id="g1"
       transform="matrix(-0.08833801,0,0,0.08833801,528.43948,339.48717)">
      <circle
         style="fill:none;fill-opacity:1;stroke:#2e2f32;stroke-width:4.5;stroke-linecap:round;stroke-linejoin:round;stroke-miterlimit:1.6;stroke-dasharray:none;stroke-opacity:0.75"
         id="path1"
         cx="-626.04608"
         cy="540"
         r="165.47697"
         transform="scale(-1,1)" />
      <path
         style="color:#000000;fill:#2e2f32;stroke-linecap:round;stroke-linejoin:round;stroke-miterlimit:1.6;-inkscape-stroke:none;paint-order:stroke fill markers"
         d="m 579.57081,439.81445 c -2.53372,0.67889 -4.84417,2.01262 -6.69922,3.86719 -5.83753,5.83718 -5.83753,15.30149 0,21.13867 l 53.57211,75.00196 -53.92953,75.35742 c -5.83753,5.83718 -5.83753,15.30149 0,21.13867 5.83718,5.83753 15.30149,5.83753 21.13867,0 l 85.92578,-85.92774 c 5.8367,-5.83752 5.8367,-15.30115 0,-21.13867 l -85.57031,-85.57031 c -3.77621,-3.77545 -9.27971,-5.2496 -14.4375,-3.86719 z"
         id="path2" />
    </g>
  </g>
</svg>
