<?xml version="1.0" encoding="UTF-8" standalone="no"?>
<!-- Created by João Kleby with Inkscape (http://www.inkscape.org/) -->

<svg
   width="855.06726"
   height="893.19189"
   viewBox="0 0 226.23653 236.3237"
   version="1.1"
   id="svg1"
   inkscape:version="1.3.2 (091e20e, 2023-11-25, custom)"
   sodipodi:docname="verified.svg"
   xmlns:inkscape="http://www.inkscape.org/namespaces/inkscape"
   xmlns:sodipodi="http://sodipodi.sourceforge.net/DTD/sodipodi-0.dtd"
   xmlns="http://www.w3.org/2000/svg"
   xmlns:svg="http://www.w3.org/2000/svg">
  <sodipodi:namedview
     id="namedview1"
     pagecolor="#ffffff"
     bordercolor="#000000"
     borderopacity="0.25"
     inkscape:showpageshadow="2"
     inkscape:pageopacity="0.0"
     inkscape:pagecheckerboard="0"
     inkscape:deskcolor="#d1d1d1"
     inkscape:document-units="mm"
     inkscape:zoom="0.52473018"
     inkscape:cx="959.54078"
     inkscape:cy="715.60588"
     inkscape:window-width="1920"
     inkscape:window-height="1009"
     inkscape:window-x="-8"
     inkscape:window-y="-8"
     inkscape:window-maximized="1"
     inkscape:current-layer="layer1" />
  <defs
     id="defs1">
    <inkscape:path-effect
       origin="214.19947,108.26278"
       starting_point="314.19947,108.26278"
       effect="copy_rotate"
       id="path-effect6"
       is_visible="true"
       lpeversion="1.2"
       lpesatellites=""
       method="normal"
       num_copies="10"
       starting_angle="0"
       rotation_angle="36"
       gap="-0.01"
       copies_to_360="true"
       mirror_copies="false"
       split_items="false"
       link_styles="false" />
    <inkscape:path-effect
       effect="fill_between_many"
       method="originald"
       linkedpaths="#path1-1,0,1"
       id="path-effect1"
       is_visible="true"
       lpeversion="0"
       join="true"
       close="true"
       autoreverse="true" />
  </defs>
  <g
     inkscape:label="Camada 1"
     id="layer1"
     transform="translate(-140.88172,-24.713155)">
    <g
       id="g8"
       transform="translate(31.956592,-4.607468)">
      <g
         id="g6">
        <path
           inkscape:original-d="M 0,0"
           inkscape:path-effect="#path-effect1"
           d="m 262.31105,107.69412 c 5.31183,0.0369 -3.99751,-29.166904 -16.25788,-53.975677 -5.73836,-11.611527 -12.74535,-24.28207 -24.19912,-24.397182 -11.68916,-0.117477 -21.16429,16.036721 -25.19186,24.397182 -11.59601,24.071089 -23.70938,53.975677 -16.69081,53.975677 15.40299,0 69.65966,-0.0882 82.33967,0 z"
           id="path1" />
        <path
           id="path1-1"
           style="fill:#1da1f2;fill-opacity:1;stroke:none;stroke-width:1.45807;stroke-linecap:square;stroke-linejoin:miter;stroke-miterlimit:1;stroke-dasharray:none;stroke-dashoffset:0;stroke-opacity:1;paint-order:stroke fill markers"
           d="m 254.46711,68.474429 c 5.31183,0.03694 -3.99751,-29.166901 -16.25788,-53.975674 -5.73836,-11.6115273 -12.74535,-24.28207 -24.19912,-24.3971817 -11.68916,-0.1174773 -21.16429,16.0367209 -25.19186,24.3971817 -11.59601,24.071089 -23.70938,53.975674 -16.69081,53.975674 15.40299,0 69.65966,-0.08819 82.33967,0 z M 223.38967,52.404603 c 4.31907,-3.09233 -20.37793,-21.246841 -44.87901,-34.111096 -11.46751,-6.020999 -24.58384,-12.153078 -33.9178,-5.513848 -9.52578,6.775674 -7.69612,25.414037 -6.04034,34.545138 4.76726,26.289884 12.54481,57.603263 18.22296,53.477853 12.46128,-9.053654 56.30401,-41.016271 66.61419,-48.398047 z m -34.58779,5.266099 c 1.67658,-5.040436 -28.97467,-5.21121 -56.35787,-1.217238 -12.81647,1.869346 -27.03215,4.617976 -30.68104,15.475587 -3.723878,11.080749 8.7117,25.084055 15.41838,31.498029 19.30961,18.46683 44.00732,39.22836 46.17618,32.5533 4.75978,-14.64911 21.44214,-66.277524 25.44435,-78.309678 z m -24.88677,24.590553 c -1.60631,-5.063265 -26.50407,12.814926 -46.30995,32.141565 -9.26997,9.04566 -19.155092,19.62512 -15.72516,30.55387 3.50042,11.15336 21.79195,15.17282 30.98781,16.41974 26.47633,3.59009 58.66052,5.86956 56.49166,-0.8055 -4.75978,-14.64911 -21.60989,-66.223016 -25.44436,-78.309675 z m -5.67985,34.522255 c -4.27565,-3.1521 -13.90982,25.94619 -18.5732,53.22338 -2.18266,12.76684 -3.96144,27.13613 5.23719,33.96162 9.38768,6.96575 26.54842,-0.53392 34.72095,-4.93033 23.53,-12.65796 50.90739,-29.73122 45.22925,-33.85663 -12.46128,-9.05365 -56.40768,-40.87357 -66.61419,-48.39804 z m 15.69657,31.26762 c -5.31183,-0.0369 3.99751,29.1669 16.25788,53.97568 5.73836,11.61152 12.74535,24.28206 24.19912,24.39718 11.68916,0.11747 21.16429,-16.03672 25.19186,-24.39718 11.59601,-24.07109 23.70938,-53.97568 16.69081,-53.97568 -15.40299,0 -69.65966,0.0882 -82.33967,0 z m 31.07744,16.06983 c -4.31907,3.09233 20.37793,21.24684 44.87901,34.11109 11.46751,6.021 24.58384,12.15308 33.9178,5.51385 9.52578,-6.77567 7.69612,-25.41404 6.04034,-34.54514 -4.76726,-26.28988 -12.54481,-57.60326 -18.22296,-53.47785 -12.46128,9.05365 -56.30401,41.01627 -66.61419,48.39805 z m 34.58779,-5.2661 c -1.67658,5.04043 28.97467,5.21121 56.35787,1.21724 12.81647,-1.86935 27.03215,-4.61798 30.68104,-15.47559 3.72388,-11.08075 -8.7117,-25.08406 -15.41838,-31.49803 C 291.90798,94.631646 267.21027,73.870122 265.04141,80.545178 260.28163,95.194292 243.59927,146.8227 239.59706,158.85486 Z m 24.88677,-24.59056 c 1.60631,5.06327 26.50407,-12.81492 46.30995,-32.14156 9.26997,-9.045662 19.15509,-19.625119 15.72516,-30.553873 -3.50042,-11.153354 -21.79195,-15.172817 -30.98781,-16.419739 -26.47633,-3.590085 -58.66052,-5.86956 -56.49166,0.805497 4.75978,14.649114 21.60989,66.223025 25.44436,78.309675 z m 5.67985,-34.522247 c 4.27565,3.152097 13.90982,-25.946196 18.5732,-53.22338 2.18266,-12.766846 3.96144,-27.136136 -5.23719,-33.96162 -9.38768,-6.9657573 -26.54842,0.533922 -34.72095,4.930331 -23.53,12.657956 -50.90739,29.731213 -45.22925,33.856625 12.46128,9.05365 56.40768,40.873574 66.61419,48.398044 z"
           transform="translate(7.8439376,39.219688)"
           inkscape:path-effect="#path-effect6"
           inkscape:original-d="m 254.46711,68.474429 c 5.31183,0.03694 -3.99751,-29.166901 -16.25788,-53.975674 -5.73836,-11.6115273 -12.74535,-24.28207 -24.19912,-24.3971817 -11.68916,-0.1174773 -21.16429,16.0367209 -25.19186,24.3971817 -11.59601,24.071089 -23.70938,53.975674 -16.69081,53.975674 15.40299,0 69.65966,-0.08819 82.33967,0 z"
           sodipodi:nodetypes="ssasss" />
        <circle
           style="fill:#1da1f2;fill-opacity:1;stroke:none;stroke-width:7.09999;stroke-linecap:round;stroke-linejoin:round;stroke-miterlimit:1.6"
           id="path6"
           cx="221.73401"
           cy="145.59567"
           r="48.02766" />
      </g>
      <path
         style="fill:#1da1f2;fill-opacity:1;stroke:#ffffff;stroke-width:17.4;stroke-linecap:round;stroke-linejoin:round;stroke-miterlimit:1.6;stroke-dasharray:none;stroke-opacity:1"
         d="m 175.9066,148.7432 25.21137,27.73251 67.06225,-57.98615"
         id="path7"
         sodipodi:nodetypes="ccc" />
    </g>
  </g>
</svg>
